<?xml version="1.0" encoding="utf-8"?>
<!-- Generator: Adobe Illustrator 23.0.1, SVG Export Plug-In . SVG Version: 6.00 Build 0)  -->
<svg version="1.1" id="Layer_1" xmlns="http://www.w3.org/2000/svg" xmlns:xlink="http://www.w3.org/1999/xlink" x="0px" y="0px"
	 width="14px" height="20px" viewBox="0 0 14 20" style="enable-background:new 0 0 14 20;" xml:space="preserve">
<path d="M13.5,15.4l-3.1-2.6c-0.3-0.2-0.7-0.2-0.9-0.1l-2.1,1.4c-2.1-1.9-3.5-4.5-3.9-7.3l2.4-1c0.3-0.1,0.5-0.5,0.5-0.8l-0.4-4
	c0-0.4-0.4-0.7-0.7-0.7L1.7,0.1C1.3,0.1,1,0.4,0.9,0.7C-1.6,8.8,2.9,17.3,11,19.8c0.4,0.1,0.7,0,0.9-0.4l1.8-3
	C13.9,16.1,13.8,15.7,13.5,15.4L13.5,15.4z"/>
</svg>
